# xmcd CD database file
#
# Track frame offsets:
#	187
#	50759
#	89944
#	130959
#
# Disc length: 2326 seconds
#
# Revision: 0
# Processed by: cddbd v1.5.2PL0 Copyright (c) Steve Scherf et al.
# Submitted via: CDex 1.51
#
DISCID=3b091404
DTITLE=Elmo Hope Sextet - Informal Jazz
DYEAR=1956
DGENRE=Jazz
TTITLE0=Weeja
TTITLE1=Polka Dots And Moonbeams
TTITLE2=On It
TTITLE3=Avalon
EXTD=YEAR: 1956
EXTT0=
EXTT1=
EXTT2=
EXTT3=
PLAYORDER=
